<svg xmlns:dc="http://purl.org/dc/elements/1.1/" xmlns:cc="http://creativecommons.org/ns#" xmlns:rdf="http://www.w3.org/1999/02/22-rdf-syntax-ns#" xmlns:svg="http://www.w3.org/2000/svg" xmlns="http://www.w3.org/2000/svg" viewBox="0 0 917.40708 173.31586" height="39" width="203" xml:space="preserve" id="svg3680" version="1.1"><metadata id="metadata3686"><rdf:rdf><cc:work rdf:about=""><dc:format>image/svg+xml</dc:format><dc:type rdf:resource="http://purl.org/dc/dcmitype/StillImage"></dc:type><dc:title></dc:title></cc:work></rdf:rdf></metadata><defs id="defs3684"><clipPath id="clipPath3696" clipPathUnits="userSpaceOnUse"><path id="path3694" d="M 0,768 H 1024 V 0 H 0 Z"></path></clipPath></defs><g transform="matrix(1.3333333,0,0,-1.3333333,-275.59282,579.47707)" id="g3688"><g transform="translate(38.677018,-16.90099)" id="g3690"><g clip-path="url(#clipPath3696)" id="g3692"><g transform="translate(238.7156,448.9449)" id="g3698"><path id="path3700" style="fill:#33305e;fill-opacity:1;fill-rule:nonzero;stroke:none" d="m 0,0 c -64.116,0 -70.698,-9.044 -70.698,-62.49 0,-52.606 6.582,-64.933 70.698,-64.933 64.95,0 70.706,13.155 70.706,64.933 C 70.706,-7.398 62.477,0 0,0 m 0,-18.366 c 12.938,0 39.864,0 46.606,-5.965 5.051,-4.477 5.732,-21.803 5.732,-38.159 0,-16.041 -0.44,-33.611 -5.75,-39.034 -7.375,-7.532 -36.895,-7.532 -46.588,-7.532 -16.763,0 -39.813,0.762 -46.411,7.362 -4.918,4.913 -5.924,19.227 -5.924,39.204 0,17.033 0.652,33.404 5.415,37.81 6.831,6.314 34.925,6.314 46.92,6.314"></path></g><g transform="translate(238.7207,417.2439)" id="g3702"><path id="path3704" style="fill:#33305e;fill-opacity:1;fill-rule:nonzero;stroke:none" d="m 0,0 c 0,1.149 -21.349,-18.138 -21.349,-43.392 0,-8.933 5.488,-16.579 13.274,-19.764 0.244,-0.097 0.476,-0.194 0.723,-0.278 -0.354,0.197 -0.708,0.404 -1.042,0.63 -1.802,1.977 -2.918,4.599 -2.918,7.491 0,6.14 4.978,11.114 11.117,11.114 6.139,0 11.118,-4.974 11.118,-11.114 0,-3.185 -1.345,-6.045 -3.483,-8.07 -0.035,-0.016 -0.065,-0.038 -0.093,-0.051 0.021,0.005 0.038,0.008 0.053,0.013 8.138,3.014 13.947,10.845 13.947,20.029 C 21.347,-19.746 0,-11.794 0,0"></path></g><g transform="translate(260.0676,373.8517)" id="g3706"><path id="path3708" style="fill:#33305e;fill-opacity:1;fill-rule:nonzero;stroke:none" d="m 0,0 c 0,23.646 -21.347,31.598 -21.347,43.392 0,1.149 -21.348,-18.138 -21.348,-43.392 0,-8.933 5.488,-16.579 13.273,-19.764 -0.11,0.113 -0.211,0.236 -0.319,0.352 -3.957,2.687 -6.554,7.222 -6.554,12.366 0,16.552 14.948,22.118 14.948,30.37 0,0.803 14.943,-12.699 14.943,-30.37 0,-5.539 -3.029,-10.364 -7.503,-12.944 -0.015,-0.011 -0.032,-0.022 -0.04,-0.039 C -5.809,-17.015 0,-9.184 0,0"></path></g><g transform="translate(246.0674,353.8095)" id="g3710"><path id="path3712" style="fill:#f3f4f5;fill-opacity:1;fill-rule:nonzero;stroke:none" d="M 0,0 C 0.022,0.005 0.038,0.009 0.053,0.013 0.062,0.03 0.078,0.042 0.093,0.052 0.058,0.035 0.028,0.013 0,0"></path></g><g transform="translate(230.3266,354.4398)" id="g3714"><path id="path3716" style="fill:#f3f4f5;fill-opacity:1;fill-rule:nonzero;stroke:none" d="M 0,0 C 0.108,-0.116 0.209,-0.239 0.319,-0.352 0.564,-0.449 0.795,-0.545 1.042,-0.63 0.688,-0.432 0.334,-0.226 0,0"></path></g><g transform="translate(238.5263,373.0451)" id="g3718"><path id="path3720" style="fill:#4765ad;fill-opacity:1;fill-rule:nonzero;stroke:none" d="m 0,0 c 6.138,0 11.117,-4.974 11.117,-11.114 0,-3.185 -1.345,-6.045 -3.483,-8.07 4.474,2.58 7.503,7.405 7.503,12.945 0,17.671 -14.943,31.172 -14.943,30.369 0,-8.251 -14.947,-13.817 -14.947,-30.369 0,-5.144 2.597,-9.679 6.553,-12.366 -1.802,1.977 -2.918,4.598 -2.918,7.491 C -11.118,-4.974 -6.14,0 0,0"></path></g><g transform="translate(412.7437,348.4131)" id="g3722"><path id="path3724" style="fill:#33305e;fill-opacity:1;fill-rule:nonzero;stroke:none" d="m 0,0 v 52.578 c 0,8.982 -9.867,5.157 -15.907,2.946 0,-17.964 0.146,-37.846 0.146,-55.524 h -23.857 v 53.464 c 0,7.954 -12.223,4.271 -16.641,1.325 V 0 h -24.013 v 73.487 h 20.183 l 1.767,-6.178 c 4.413,2.213 9.275,7.508 20.173,7.66 8.837,0.141 12.376,-3.54 16.499,-8.253 4.123,1.772 10.454,8.101 22.97,8.253 15.028,0.141 22.688,-6.777 22.688,-19.445 L 24.008,0 Z"></path></g><g transform="translate(636.3168,385.2332)" id="g3726"><path id="path3728" style="fill:#33305e;fill-opacity:1;fill-rule:nonzero;stroke:none" d="m 0,0 c 0,20.034 -1.031,23.858 -10.6,23.858 -9.429,0 -10.021,-4.42 -10.021,-23.858 0,-19.294 0.592,-23.415 10.021,-23.415 9.719,0 10.6,4.121 10.6,23.415 m -44.031,0 c 0,30.192 4.86,38.149 33.431,38.149 29.007,0 33.723,-8.541 33.723,-38.149 0,-29.606 -4.564,-38.145 -33.723,-38.145 -29.013,0 -33.431,8.69 -33.431,38.145"></path></g><g transform="translate(546.6129,406.3676)" id="g3730"><path id="path3732" style="fill:#33305e;fill-opacity:1;fill-rule:nonzero;stroke:none" d="m 0,0 v -42.668 h 6.839 c 9.031,0 9.174,8.302 9.174,25.923 C 16.013,4.808 11.641,2.765 0,0 m 7.131,-57.954 c -6.99,0 -19.805,1.02 -30.285,2.475 v 97.85 H -0.146 V 14.416 c 4.944,2.186 10.188,2.766 12.956,2.766 19.659,0 26.648,-9.318 26.648,-32.76 0,-29.422 -2.914,-42.376 -32.327,-42.376"></path></g><path id="path3734" style="fill:#33305e;fill-opacity:1;fill-rule:nonzero;stroke:none" d="m 666.323,421.901 h 24.002 v -73.487 h -24.002 z"></path><g transform="translate(733.1139,348.4131)" id="g3736"><path id="path3738" style="fill:#33305e;fill-opacity:1;fill-rule:nonzero;stroke:none" d="m 0,0 c -8.105,-1.177 -9.131,-1.177 -10.161,-1.177 -12.373,0 -21.354,4.271 -21.354,22.24 V 98.825 H -7.658 V 18.56 c 0,-3.386 0,-6.337 7.658,-7.514 z"></path></g><g transform="translate(760.9133,393.9251)" id="g3740"><path id="path3742" style="fill:#33305e;fill-opacity:1;fill-rule:nonzero;stroke:none" d="M 0,0 H 19.294 C 18.855,12.964 17.525,14.58 9.279,14.58 0.745,14.58 0.595,10.459 0,0 m 41.678,-14.734 -41.821,-0.287 c 0.296,-16.498 4.123,-16.788 13.255,-16.788 3.535,0 12.805,0.585 24.745,1.612 v -13.398 c -10.759,-1.917 -21.509,-3.242 -31.077,-3.242 -25.919,0 -30.333,9.428 -30.333,38.286 0,29.61 3.679,38.3 32.832,38.3 26.803,0 32.399,-8.545 32.399,-38.148 z"></path></g><g transform="translate(856.0729,423.8193)" id="g3744"><path id="path3746" style="fill:#33305e;fill-opacity:1;fill-rule:nonzero;stroke:none" d="m 0,0 v -16.049 c -8.1,-0.592 -16.196,-4.271 -21.945,-6.482 V -75.406 H -45.8 v 73.639 h 21.796 l 0.592,-5.739 C -19.292,-5.448 -13.989,-1.767 0,0"></path></g><g transform="translate(678.2484,451.5088)" id="g3748"><path id="path3750" style="fill:#33305e;fill-opacity:1;fill-rule:nonzero;stroke:none" d="m 0,0 c 11.488,0 12.965,-1.034 12.965,-11.634 0,-9.575 -1.325,-12.081 -12.965,-12.081 -12.076,0 -12.956,2.506 -12.956,12.081 C -12.956,-1.623 -12.076,0 0,0"></path></g><g transform="translate(482.2924,322.0717)" id="g3752"><path id="path3754" style="fill:#33305e;fill-opacity:1;fill-rule:nonzero;stroke:none" d="m 0,0 h -20.572 l 7.789,26.3 h -7.495 l -22.483,73.464 h 24.533 L -5.887,50.25 8.808,99.764 h 23.803 z"></path></g></g></g></g></svg>